<?xml version="1.0" standalone="no"?>
<!DOCTYPE svg PUBLIC "-//W3C//DTD SVG 20010904//EN"
 "http://www.w3.org/TR/2001/REC-SVG-20010904/DTD/svg10.dtd">
<svg version="1.0" xmlns="http://www.w3.org/2000/svg"
 width="640.000000pt" height="640.000000pt" viewBox="0 0 640.000000 640.000000"
 preserveAspectRatio="xMidYMid meet">

<g transform="translate(0.000000,640.000000) scale(0.100000,-0.100000)"
fill="#000000" stroke="none">
<path d="M3235 5475 c-222 -60 -402 -237 -461 -455 -24 -90 -24 -264 0 -345
49 -165 183 -329 326 -398 289 -141 602 -75 800 169 102 126 146 267 137 443
-8 178 -59 285 -196 421 -94 93 -173 139 -284 165 -77 18 -255 18 -322 0z
m350 -230 c218 -104 311 -361 211 -580 -33 -72 -121 -164 -195 -204 -275 -146
-619 43 -638 352 -18 282 189 489 470 472 64 -4 93 -11 152 -40z"/>
<path d="M1745 4723 c-252 -54 -444 -293 -445 -554 0 -81 30 -203 67 -272 76
-138 239 -259 390 -287 282 -52 550 100 652 370 20 54 24 84 25 175 1 118 -11
176 -52 260 -97 198 -306 328 -522 324 -25 0 -76 -7 -115 -16z m293 -232 c72
-39 120 -88 158 -163 40 -76 45 -207 13 -293 -31 -82 -121 -173 -204 -205 -81
-32 -188 -32 -267 -1 -77 30 -159 106 -194 179 -31 65 -44 190 -25 257 16 60
70 144 122 187 70 59 136 79 244 75 80 -3 97 -7 153 -36z"/>
<path d="M1420 3194 c-93 -20 -182 -67 -255 -135 -125 -118 -178 -238 -178
-409 -1 -166 47 -282 163 -400 291 -295 792 -177 931 220 18 53 22 86 22 180
0 101 -3 123 -27 185 -36 94 -74 151 -149 222 -135 130 -316 179 -507 137z
m257 -216 c70 -26 162 -113 195 -185 18 -39 22 -66 23 -148 0 -86 -4 -107 -25
-150 -31 -64 -103 -136 -171 -171 -49 -26 -64 -29 -154 -29 -86 0 -107 3 -150
25 -64 31 -136 103 -171 171 -25 48 -28 64 -29 154 0 86 3 107 25 150 34 70
126 158 192 184 74 28 188 28 265 -1z"/>
<path d="M4666 2546 c-149 -54 -242 -155 -281 -303 -39 -151 0 -296 111 -413
225 -237 627 -143 729 170 22 67 22 189 1 264 -20 67 -82 162 -136 204 -77 63
-159 93 -262 98 -81 4 -102 2 -162 -20z m210 -191 c212 -64 217 -366 7 -441
-151 -54 -308 59 -307 221 1 130 95 224 235 234 8 0 38 -6 65 -14z"/>
<path d="M2290 1991 c-161 -52 -289 -170 -342 -318 -27 -73 -35 -224 -18 -302
39 -175 199 -340 375 -385 75 -20 184 -20 260 -1 204 53 357 224 387 432 38
260 -129 511 -383 578 -75 20 -211 18 -279 -4z m262 -207 c61 -20 126 -79 163
-145 23 -44 30 -69 33 -135 4 -72 1 -89 -21 -138 -91 -197 -339 -252 -497
-109 -28 25 -63 69 -78 97 -36 70 -38 197 -3 268 74 153 235 218 403 162z"/>
<path d="M3755 1834 c-110 -15 -192 -54 -272 -128 -104 -97 -153 -209 -153
-351 1 -136 41 -235 135 -331 123 -126 298 -173 470 -128 143 37 278 162 326
301 61 178 17 365 -118 500 -65 65 -95 84 -179 113 -54 19 -158 31 -209 24z
m178 -233 c58 -28 122 -104 138 -164 14 -54 7 -153 -14 -197 -23 -48 -81 -106
-131 -133 -57 -30 -174 -30 -232 1 -63 32 -97 65 -129 124 -23 43 -29 65 -29
118 0 84 17 133 67 187 66 71 120 94 217 90 44 -2 81 -10 113 -26z"/>
</g>
</svg>
